<svg width="24" height="25" viewBox="0 0 24 25" fill="none" xmlns="http://www.w3.org/2000/svg">
<g id="app-store 1" clip-path="url(#clip0_2076_34464)">
<g id="Group">
<g id="Group_2">
<path id="Vector" d="M9 1.53308H3C1.89543 1.53308 1 2.42851 1 3.53308V9.53308C1 10.6377 1.89543 11.5331 3 11.5331H9C10.1046 11.5331 11 10.6377 11 9.53308V3.53308C11 2.42851 10.1046 1.53308 9 1.53308Z" fill="#3D4C68"/>
<path id="Vector_2" d="M23.428 5.15106L19.381 1.10506C19.0142 0.739764 18.5177 0.534668 18 0.534668C17.4823 0.534668 16.9858 0.739764 16.619 1.10506L12.572 5.15106C12.2066 5.51818 12.0014 6.01508 12.0014 6.53306C12.0014 7.05104 12.2066 7.54794 12.572 7.91506L16.619 11.9621C16.9858 12.3274 17.4823 12.5324 18 12.5324C18.5177 12.5324 19.0142 12.3274 19.381 11.9621L23.428 7.91606C23.7937 7.5489 23.9991 7.05178 23.9991 6.53356C23.9991 6.01533 23.7937 5.51822 23.428 5.15106Z" fill="#3D4C68"/>
<path id="Vector_3" d="M21 13.5331H15C13.8954 13.5331 13 14.4285 13 15.5331V21.5331C13 22.6377 13.8954 23.5331 15 23.5331H21C22.1046 23.5331 23 22.6377 23 21.5331V15.5331C23 14.4285 22.1046 13.5331 21 13.5331Z" fill="#3D4C68"/>
<path id="Vector_4" d="M9 13.5331H3C1.89543 13.5331 1 14.4285 1 15.5331V21.5331C1 22.6377 1.89543 23.5331 3 23.5331H9C10.1046 23.5331 11 22.6377 11 21.5331V15.5331C11 14.4285 10.1046 13.5331 9 13.5331Z" fill="#3D4C68"/>
</g>
</g>
</g>
<defs>
<clipPath id="clip0_2076_34464">
<rect width="24" height="24" fill="white" transform="translate(0 0.533081)"/>
</clipPath>
</defs>
</svg>
