<svg width="14" height="14" viewBox="0 0 14 14" fill="none" xmlns="http://www.w3.org/2000/svg">
<g id="energy 1">
<g id="Group">
<path id="Vector" d="M8.50851 5.50638C8.50851 5.50638 9.16126 1.66688 6.49776 0C6.45808 0.659702 6.27968 1.30361 5.97421 1.88967C5.66874 2.47574 5.24307 2.99077 4.72501 3.40112C3.58751 4.40125 1.44813 6.65 1.47088 9.0475C1.46271 10.0724 1.7411 11.0792 2.27466 11.9542C2.80821 12.8293 3.57569 13.5379 4.49051 14C4.52319 13.5372 4.64791 13.0857 4.85736 12.6717C5.06681 12.2578 5.35677 11.8898 5.71026 11.5894C6.00979 11.359 6.26046 11.0713 6.44765 10.7431C6.63483 10.4148 6.75478 10.0526 6.80051 9.6775C7.58357 10.0938 8.24519 10.7062 8.72065 11.4548C9.19611 12.2034 9.46913 13.0626 9.51301 13.9484V13.9598C10.3765 13.5642 11.1137 12.9375 11.643 12.149C12.1724 11.3605 12.4733 10.4409 12.5125 9.492C12.7015 7.23975 11.4678 4.17725 10.3731 3.17625C9.95987 4.09889 9.3181 4.90088 8.50851 5.50638Z" fill="#666666"/>
</g>
</g>
</svg>
