<svg width="24" height="25" viewBox="0 0 24 25" fill="none" xmlns="http://www.w3.org/2000/svg">
<g id="gear 1" clip-path="url(#clip0_2076_34474)">
<g id="Group">
<g id="Group_2">
<path id="Vector" d="M22 10.5331H20.769C20.5441 9.54601 20.1532 8.60429 19.613 7.74808L20.485 6.87608C20.8493 6.49888 21.0509 5.99367 21.0463 5.46928C21.0418 4.94489 20.8315 4.44326 20.4606 4.07244C20.0898 3.70163 19.5882 3.49129 19.0638 3.48673C18.5394 3.48218 18.0342 3.68376 17.657 4.04808L16.785 4.92008C15.9288 4.37989 14.9871 3.989 14 3.76408V2.53308C14 2.00265 13.7893 1.49394 13.4142 1.11887C13.0391 0.743795 12.5304 0.533081 12 0.533081C11.4696 0.533081 10.9609 0.743795 10.5858 1.11887C10.2107 1.49394 10 2.00265 10 2.53308V3.76408C9.01293 3.989 8.07121 4.37989 7.215 4.92008L6.343 4.04808C5.9658 3.68376 5.46059 3.48218 4.9362 3.48673C4.4118 3.49129 3.91018 3.70163 3.53936 4.07244C3.16855 4.44326 2.95821 4.94489 2.95365 5.46928C2.9491 5.99367 3.15068 6.49888 3.515 6.87608L4.387 7.74808C3.84681 8.60429 3.45592 9.54601 3.231 10.5331H2C1.46957 10.5331 0.960859 10.7438 0.585786 11.1189C0.210714 11.4939 0 12.0026 0 12.5331C0 13.0635 0.210714 13.5722 0.585786 13.9473C0.960859 14.3224 1.46957 14.5331 2 14.5331H3.231C3.45592 15.5202 3.84681 16.4619 4.387 17.3181L3.515 18.1901C3.15068 18.5673 2.9491 19.0725 2.95365 19.5969C2.95821 20.1213 3.16855 20.6229 3.53936 20.9937C3.91018 21.3645 4.4118 21.5749 4.9362 21.5794C5.46059 21.584 5.9658 21.3824 6.343 21.0181L7.215 20.1461C8.07121 20.6863 9.01293 21.0772 10 21.3021V22.5331C10 23.0635 10.2107 23.5722 10.5858 23.9473C10.9609 24.3224 11.4696 24.5331 12 24.5331C12.5304 24.5331 13.0391 24.3224 13.4142 23.9473C13.7893 23.5722 14 23.0635 14 22.5331V21.3021C14.9871 21.0772 15.9288 20.6863 16.785 20.1461L17.657 21.0181C18.0342 21.3824 18.5394 21.584 19.0638 21.5794C19.5882 21.5749 20.0898 21.3645 20.4606 20.9937C20.8315 20.6229 21.0418 20.1213 21.0463 19.5969C21.0509 19.0725 20.8493 18.5673 20.485 18.1901L19.613 17.3181C20.1532 16.4619 20.5441 15.5202 20.769 14.5331H22C22.5304 14.5331 23.0391 14.3224 23.4142 13.9473C23.7893 13.5722 24 13.0635 24 12.5331C24 12.0026 23.7893 11.4939 23.4142 11.1189C23.0391 10.7438 22.5304 10.5331 22 10.5331ZM12 16.5331C11.2089 16.5331 10.4355 16.2985 9.77772 15.859C9.11992 15.4194 8.60723 14.7947 8.30448 14.0638C8.00173 13.3329 7.92252 12.5286 8.07686 11.7527C8.2312 10.9768 8.61216 10.2641 9.17157 9.70465C9.73098 9.14524 10.4437 8.76428 11.2196 8.60994C11.9956 8.4556 12.7998 8.53481 13.5307 8.83756C14.2616 9.14031 14.8864 9.653 15.3259 10.3108C15.7654 10.9686 16 11.742 16 12.5331C16 13.5939 15.5786 14.6114 14.8284 15.3615C14.0783 16.1117 13.0609 16.5331 12 16.5331Z" fill="#3D4C68"/>
</g>
</g>
</g>
<defs>
<clipPath id="clip0_2076_34474">
<rect width="24" height="24" fill="white" transform="translate(0 0.533081)"/>
</clipPath>
</defs>
</svg>
