<svg width="17" height="25" viewBox="0 0 17 25" fill="none" xmlns="http://www.w3.org/2000/svg">
<g id="Group">
<g id="Group_2">
<path id="Vector" d="M12.7668 11.2V24.5331L8.50018 21.8664L4.23358 24.5331V11.2H12.7668Z" fill="#FFDB1C"/>
<path id="Vector_2" d="M8.5 15.9999C8.36347 15.9999 8.22694 15.9476 8.12294 15.8436L6.14591 13.8666H3.16676C2.87183 13.8666 2.63343 13.6282 2.63343 13.3333V10.3541L0.656397 8.37706C0.447868 8.16853 0.447868 7.83147 0.656397 7.62294L2.63343 5.64591V2.66676C2.63343 2.37183 2.87183 2.13343 3.16676 2.13343H6.14591L8.12294 0.156397C8.33147 -0.0521325 8.66853 -0.0521325 8.87706 0.156397L10.8541 2.13343H13.8333C14.1282 2.13343 14.3666 2.37183 14.3666 2.66676V5.64591L16.3436 7.62294C16.5521 7.83147 16.5521 8.16853 16.3436 8.37706L14.3666 10.3541V13.3333C14.3666 13.6282 14.1282 13.8666 13.8333 13.8666H10.8541L8.87706 15.8436C8.77307 15.9476 8.63653 15.9999 8.5 15.9999Z" fill="#FF626E"/>
<path id="Vector_3" d="M8.50018 11.1999C10.2675 11.1999 11.7001 9.76728 11.7001 8C11.7001 6.23271 10.2675 4.80005 8.50018 4.80005C6.7329 4.80005 5.30023 6.23271 5.30023 8C5.30023 9.76728 6.7329 11.1999 8.50018 11.1999Z" fill="#B6020F"/>
</g>
</g>
</svg>
