<svg width="20" height="20" viewBox="0 0 20 20" fill="none" xmlns="http://www.w3.org/2000/svg">
<g id="hearts-suit 1">
<g id="Group">
<g id="Group_2">
<path id="Vector" d="M18.125 7.49999C18.1279 6.54116 17.8149 5.60807 17.2343 4.845C16.6537 4.08194 15.8378 3.53142 14.9129 3.27857C13.988 3.02571 13.0056 3.08462 12.1175 3.44617C11.2295 3.80772 10.4853 4.45177 9.99999 5.27874C9.68632 4.74702 9.26342 4.28788 8.75921 3.93164C8.25501 3.5754 7.68098 3.33017 7.07502 3.21213C6.46905 3.09409 5.84494 3.10593 5.2439 3.24688C4.64285 3.38782 4.07853 3.65465 3.58821 4.02976C3.09788 4.40487 2.69271 4.87973 2.39943 5.42297C2.10615 5.96621 1.93144 6.56549 1.88684 7.18122C1.84223 7.79696 1.92875 8.41516 2.14067 8.995C2.35259 9.57484 2.6851 10.1031 3.11624 10.545L9.99999 17.5812L16.6725 10.735C17.1283 10.3281 17.4933 9.82972 17.7436 9.27232C17.9938 8.71491 18.1238 8.11101 18.125 7.49999Z" stroke="#3D4C68" stroke-width="1.5" stroke-miterlimit="10" stroke-linecap="round" stroke-linejoin="round"/>
</g>
</g>
</g>
</svg>
