<svg width="35" height="36" viewBox="0 0 35 36" fill="none" xmlns="http://www.w3.org/2000/svg">
<g id="Frame" clip-path="url(#clip0_2102_14347)">
<path id="Vector" d="M12.1618 13.5908L25.4063 0.888916H6.68655C5.98811 0.88981 5.29405 0.999125 4.62915 1.21296L9.73921 13.0996C9.8353 13.3227 9.98398 13.5192 10.1725 13.6723C10.3611 13.8254 10.5839 13.9306 10.822 13.9789C11.0601 14.0272 11.3063 14.0171 11.5396 13.9495C11.7729 13.8819 11.9864 13.7588 12.1618 13.5908V13.5908Z" fill="#B6020F"/>
<path id="Vector_2" d="M19.8642 13.5187L34.2222 18.4282V7.57544C34.2223 6.15299 33.7687 4.7676 32.9274 3.6206C32.0861 2.47361 30.901 1.62479 29.5442 1.19751L19.3112 11.0113C19.1254 11.1899 18.9885 11.4132 18.9138 11.6599C18.839 11.9066 18.8289 12.1684 18.8844 12.4201C18.94 12.6718 19.0592 12.905 19.2308 13.0974C19.4023 13.2898 19.6204 13.4349 19.8642 13.5187V13.5187Z" fill="#B6020F"/>
<path id="Vector_3" d="M1.96996 2.84094C1.3454 3.46107 0.849784 4.19871 0.511679 5.0113C0.173574 5.8239 -0.000327833 6.69539 4.63959e-07 7.57553L4.6396e-07 28.4067C4.6396e-07 30.18 0.704473 31.8808 1.95844 33.1348C3.21241 34.3887 4.91316 35.0932 6.68654 35.0932H15.8445L1.96996 2.84094Z" fill="#B6020F"/>
<path id="Vector_4" d="M14.178 15.9337L12.8587 17.199C12.5766 17.4698 12.3838 17.8203 12.3062 18.2035C12.2285 18.5868 12.2696 18.9846 12.4241 19.3439L19.2032 35.1113H27.5305C29.3039 35.1113 31.0047 34.4068 32.2586 33.1528C33.5126 31.8988 34.2171 30.1981 34.2171 28.4247V21.6893L16.1274 15.5017C15.7941 15.3884 15.436 15.3688 15.0923 15.445C14.7485 15.5212 14.4323 15.6902 14.178 15.9337V15.9337Z" fill="#B6020F"/>
</g>
<defs>
<clipPath id="clip0_2102_14347">
<rect width="34.2222" height="34.2222" fill="white" transform="translate(0 0.888916)"/>
</clipPath>
</defs>
</svg>
