<svg width="20" height="20" viewBox="0 0 20 20" fill="none" xmlns="http://www.w3.org/2000/svg">
<g id="phone-call 1" clip-path="url(#clip0_2212_16803)">
<g id="Group">
<g id="Group_2">
<path id="Vector" d="M11.472 13.1613L10.1483 14.8175C8.09732 13.6115 6.38799 11.9022 5.18202 9.85126L6.83827 8.52751C7.03232 8.37216 7.16945 8.15691 7.22825 7.91539C7.28705 7.67387 7.2642 7.41967 7.16327 7.19251L5.65452 3.79501C5.54636 3.55129 5.35516 3.35391 5.115 3.23807C4.87484 3.12222 4.60134 3.09544 4.34327 3.16251L1.46827 3.91251C1.19944 3.98121 0.965477 4.14685 0.811349 4.37758C0.657221 4.60831 0.593799 4.88786 0.63327 5.16251C1.13818 8.75152 2.79783 12.0786 5.36132 14.6407C7.9248 17.2029 11.2527 18.8607 14.842 19.3638C15.1167 19.4032 15.3962 19.3398 15.627 19.1857C15.8577 19.0316 16.0233 18.7976 16.092 18.5288L16.842 15.6538C16.9088 15.3959 16.8818 15.1227 16.766 14.8828C16.6502 14.6429 16.453 14.4519 16.2095 14.3438L12.807 12.8375C12.58 12.7364 12.3259 12.7134 12.0844 12.772C11.8429 12.8305 11.6275 12.9674 11.472 13.1613V13.1613Z" stroke="#3D4C68" stroke-width="1.14067" stroke-linecap="round" stroke-linejoin="round"/>
<path id="Vector_2" d="M10.6246 5C11.785 5 12.8978 5.46094 13.7182 6.28141C14.5387 7.10188 14.9996 8.21468 14.9996 9.375" stroke="#3D4C68" stroke-width="1.14067" stroke-linecap="round" stroke-linejoin="round"/>
<path id="Vector_3" d="M10.6246 1.25C11.6916 1.25 12.7482 1.46016 13.7339 1.86848C14.7197 2.2768 15.6154 2.87528 16.3699 3.62976C17.1244 4.38423 17.7228 5.27993 18.1312 6.2657C18.5395 7.25147 18.7496 8.30801 18.7496 9.375" stroke="#3D4C68" stroke-width="1.14067" stroke-linecap="round" stroke-linejoin="round"/>
</g>
</g>
</g>
<defs>
<clipPath id="clip0_2212_16803">
<rect width="20" height="20" fill="white"/>
</clipPath>
</defs>
</svg>
