<svg width="24" height="25" viewBox="0 0 24 25" fill="none" xmlns="http://www.w3.org/2000/svg">
<g id="property-for-sale 1" clip-path="url(#clip0_2076_34446)">
<g id="Group">
<g id="Group_2">
<path id="Vector" d="M14 15.5331H10V24.5331H14V15.5331Z" fill="#3D4C68"/>
<path id="Vector_2" d="M14 0.533081H10V2.53308H14V0.533081Z" fill="#3D4C68"/>
<path id="Vector_3" d="M10.027 6.96109C9.95501 6.67242 9.90768 6.46542 9.88501 6.34009C9.86501 6.45509 9.82401 6.64609 9.76401 6.91409C9.70401 7.18209 9.57001 7.70509 9.36401 8.48909H10.427L10.212 7.66909C10.16 7.48609 10.1 7.25109 10.027 6.96109Z" fill="#3D4C68"/>
<path id="Vector_4" d="M23 2.53308H1C0.734784 2.53308 0.48043 2.63844 0.292893 2.82597C0.105357 3.01351 0 3.26786 0 3.53308L0 12.5331C0 12.7983 0.105357 13.0527 0.292893 13.2402C0.48043 13.4277 0.734784 13.5331 1 13.5331H23C23.2652 13.5331 23.5196 13.4277 23.7071 13.2402C23.8946 13.0527 24 12.7983 24 12.5331V3.53308C24 3.26786 23.8946 3.01351 23.7071 2.82597C23.5196 2.63844 23.2652 2.53308 23 2.53308ZM4.79 7.13308C5.05322 7.29625 5.3291 7.43804 5.615 7.55708C5.96132 7.68873 6.27026 7.90293 6.515 8.18108C6.68922 8.42488 6.77751 8.71965 6.766 9.01908C6.77139 9.31178 6.68921 9.59941 6.53 9.84508C6.36309 10.0943 6.12663 10.2891 5.85 10.4051C5.52092 10.5454 5.16563 10.6136 4.808 10.6051C4.52596 10.6094 4.2442 10.5853 3.967 10.5331C3.72486 10.4796 3.48989 10.3977 3.267 10.2891V9.08908C3.52182 9.22045 3.79003 9.32405 4.067 9.39808C4.31647 9.468 4.57395 9.50531 4.833 9.50908C4.98684 9.52265 5.14106 9.48768 5.274 9.40908C5.31749 9.37928 5.353 9.33926 5.37741 9.29254C5.40182 9.24581 5.41439 9.1938 5.414 9.14108C5.41516 9.07662 5.39552 9.01351 5.358 8.96108C5.30739 8.89866 5.24569 8.84611 5.176 8.80608C4.96028 8.68754 4.73866 8.58007 4.512 8.48408C4.24943 8.37438 4.00287 8.22974 3.779 8.05408C3.62301 7.92447 3.49911 7.76053 3.417 7.57508C3.33306 7.37176 3.29318 7.15295 3.3 6.93308C3.29015 6.72638 3.33049 6.52037 3.41756 6.33265C3.50463 6.14493 3.63584 5.98107 3.8 5.85508C4.20521 5.57783 4.69079 5.44246 5.181 5.47008C5.72769 5.47642 6.26685 5.59842 6.763 5.82808L6.35 6.86508C5.97365 6.67453 5.56135 6.56549 5.14 6.54508C5.00575 6.53366 4.87141 6.56593 4.757 6.63708C4.72002 6.66252 4.68978 6.69656 4.66888 6.73628C4.64797 6.776 4.63703 6.8202 4.637 6.86508C4.63882 6.91882 4.6537 6.97131 4.68036 7.018C4.70702 7.0647 4.74465 7.1042 4.79 7.13308ZM10.952 10.5331L10.706 9.59608H9.082L8.829 10.5331H7.346L8.976 5.51508H10.776L12.428 10.5331H10.952ZM16.593 10.5331H13.318V5.53308H14.668V9.44308H16.593V10.5331ZM20.709 6.61908H19.092V7.40608H20.592V8.48908H19.092V9.43308H20.709V10.5331H17.742V5.53308H20.709V6.61908Z" fill="#3D4C68"/>
</g>
</g>
</g>
<defs>
<clipPath id="clip0_2076_34446">
<rect width="24" height="24" fill="white" transform="translate(0 0.533081)"/>
</clipPath>
</defs>
</svg>
