<svg width="24" height="25" viewBox="0 0 24 25" fill="none" xmlns="http://www.w3.org/2000/svg">
<g id="real-estate 2">
<g id="Group">
<g id="Group_2">
<path id="Vector" d="M23 17.4421C22.9 16.4331 21.949 14.5331 19 14.5331H14C13.5346 13.9118 12.9307 13.4075 12.2364 13.0603C11.542 12.7131 10.7763 12.5326 10 12.5331H7.472C5.94 10.9051 3.06 10.5331 2 10.5331H0V19.1511L7.369 22.8331C7.86665 23.081 8.41038 23.2228 8.96572 23.2494C9.52105 23.2761 10.0759 23.1871 10.595 22.9881L23.065 18.1881L23 17.4421ZM9.876 21.1241C9.6167 21.2239 9.33943 21.2686 9.06189 21.2554C8.78434 21.2421 8.5126 21.1712 8.264 21.0471L2 17.9151V12.5331C2.85145 12.4892 3.7012 12.6475 4.4797 12.9952C5.25819 13.3428 5.94332 13.8698 6.479 14.5331H10C10.6203 14.5338 11.2251 14.7265 11.7316 15.0845C12.2381 15.4426 12.6214 15.9486 12.829 16.5331H7C6.73478 16.5331 6.48043 16.6384 6.29289 16.826C6.10536 17.0135 6 17.2679 6 17.5331C6 17.7983 6.10536 18.0527 6.29289 18.2402C6.48043 18.4277 6.73478 18.5331 7 18.5331H15V17.5331C15.0009 17.1972 14.9674 16.8621 14.9 16.5331H19C19.5781 16.4865 20.1536 16.6491 20.622 16.9911L9.876 21.1241Z" fill="#3D4C68"/>
<path id="Vector_2" d="M20.851 4.00808C20.7614 3.8629 20.6362 3.74304 20.4873 3.65989C20.3383 3.57675 20.1706 3.5331 20 3.53308H11.445C11.0047 2.77052 10.3251 2.17453 9.51163 1.83756C8.69812 1.5006 7.79615 1.44148 6.94562 1.66938C6.09509 1.89728 5.34352 2.39946 4.80748 3.09804C4.27145 3.79661 3.9809 4.65255 3.9809 5.53308C3.9809 6.41362 4.27145 7.26955 4.80748 7.96813C5.34352 8.66671 6.09509 9.16889 6.94562 9.39679C7.79615 9.62469 8.69812 9.56557 9.51163 9.2286C10.3251 8.89163 11.0047 8.29565 11.445 7.53308H14L15.5 8.53308L17 7.53308H19C19.1858 7.53317 19.368 7.48147 19.5261 7.38379C19.6842 7.28611 19.8119 7.14632 19.895 6.98008L20.895 4.98008C20.971 4.82772 21.0069 4.65847 20.9992 4.48837C20.9915 4.31827 20.9405 4.15295 20.851 4.00808ZM7 6.53308C6.80222 6.53308 6.60888 6.47443 6.44443 6.36455C6.27998 6.25467 6.15181 6.09849 6.07612 5.91577C6.00043 5.73304 5.98063 5.53197 6.01921 5.33799C6.0578 5.14401 6.15304 4.96583 6.29289 4.82598C6.43274 4.68612 6.61093 4.59088 6.80491 4.5523C6.99889 4.51371 7.19995 4.53352 7.38268 4.6092C7.56541 4.68489 7.72159 4.81306 7.83147 4.97751C7.94135 5.14196 8 5.3353 8 5.53308C8 5.7983 7.89464 6.05265 7.7071 6.24019C7.51957 6.42773 7.26521 6.53308 7 6.53308Z" fill="#3D4C68"/>
</g>
</g>
</g>
</svg>
