<svg width="16" height="16" viewBox="0 0 16 16" fill="none" xmlns="http://www.w3.org/2000/svg">
<g id="sort-tool 2">
<g id="Group">
<g id="Group_2">
<path id="Vector" d="M9 15H7C6.448 15 6 14.552 6 14C6 13.448 6.448 13 7 13H9C9.552 13 10 13.448 10 14C10 14.552 9.552 15 9 15Z" fill="black"/>
<path id="Vector_2" d="M11 11H5C4.448 11 4 10.552 4 10C4 9.448 4.448 9 5 9H11C11.552 9 12 9.448 12 10C12 10.552 11.552 11 11 11Z" fill="black"/>
<path id="Vector_3" d="M13 7H3C2.448 7 2 6.552 2 6C2 5.448 2.448 5 3 5H13C13.552 5 14 5.448 14 6C14 6.552 13.552 7 13 7Z" fill="black"/>
<path id="Vector_4" d="M15 3H1C0.448 3 0 2.552 0 2C0 1.448 0.448 1 1 1H15C15.552 1 16 1.448 16 2C16 2.552 15.552 3 15 3Z" fill="black"/>
</g>
</g>
</g>
</svg>
